<svg xmlns="http://www.w3.org/2000/svg" xmlns:xlink="http://www.w3.org/1999/xlink" preserveAspectRatio="xMidYMid meet" width="400" height="250" viewBox="0 0 400 250" style="width:100%;height:100%"><defs><animateMotion repeatCount="indefinite" dur="0.3s" begin="0s" xlink:href="#_R_G_L_1_G" fill="freeze" keyTimes="0;1" path="M314.5 122 C297.92,122 231.58,122 215,122 " keyPoints="0;1" keySplines="0.532 0.513 0.429 1" calcMode="spline"/><animateTransform repeatCount="indefinite" dur="0.3s" begin="0s" xlink:href="#_R_G_L_1_G" fill="freeze" attributeName="transform" from="1.0769199999999999 1.0769199999999999" to="1.0769199999999999 1.0769199999999999" type="scale" additive="sum" keyTimes="0;1" values="1.0769199999999999 1.0769199999999999;1.0769199999999999 1.0769199999999999" keySplines="0 0 1 1" calcMode="spline"/><animateMotion repeatCount="indefinite" dur="0.3s" begin="0s" xlink:href="#_R_G_L_0_G" fill="freeze" keyTimes="0;1" path="M215 122 C231.58,122 297.92,122 314.5,122 " keyPoints="0;1" keySplines="0.532 0.513 0.429 1" calcMode="spline"/><animateTransform repeatCount="indefinite" dur="0.3s" begin="0s" xlink:href="#_R_G_L_0_G" fill="freeze" attributeName="transform" from="1.0769199999999999 1.0769199999999999" to="1.0769199999999999 1.0769199999999999" type="scale" additive="sum" keyTimes="0;1" values="1.0769199999999999 1.0769199999999999;1.0769199999999999 1.0769199999999999" keySplines="0 0 1 1" calcMode="spline"/><animate attributeType="XML" attributeName="opacity" dur="0s" from="0" to="1" xlink:href="#time_group"/></defs><g id="_R_G"><g id="_R_G_L_1_G"><path id="_R_G_L_1_G_D_0_P_0" fill="#f8f3e9" fill-opacity="1" fill-rule="nonzero" d=" M-68.25 -68.5 C-31.41,-68.5 -1.5,-38.59 -1.5,-1.75 C-1.5,35.09 -31.41,65 -68.25,65 C-105.09,65 -135,35.09 -135,-1.75 C-135,-38.59 -105.09,-68.5 -68.25,-68.5z "/><path id="_R_G_L_1_G_D_1_P_0" stroke="#1b1b1b" stroke-linecap="round" stroke-linejoin="round" fill="none" stroke-width="1" stroke-opacity="1" d=" M-68.25 -68.5 C-31.41,-68.5 -1.5,-38.59 -1.5,-1.75 C-1.5,35.09 -31.41,65 -68.25,65 C-105.09,65 -135,35.09 -135,-1.75 C-135,-38.59 -105.09,-68.5 -68.25,-68.5z "/></g><g id="_R_G_L_0_G"><path id="_R_G_L_0_G_D_0_P_0" fill="#1b1b1b" fill-opacity="1" fill-rule="nonzero" d=" M-68.25 -68.5 C-31.41,-68.5 -1.5,-38.59 -1.5,-1.75 C-1.5,35.09 -31.41,65 -68.25,65 C-105.09,65 -135,35.09 -135,-1.75 C-135,-38.59 -105.09,-68.5 -68.25,-68.5z "/><path id="_R_G_L_0_G_D_1_P_0" stroke="#f8f3e9" stroke-linecap="round" stroke-linejoin="round" fill="none" stroke-width="1" stroke-opacity="1" d=" M-68.25 -68.5 C-31.41,-68.5 -1.5,-38.59 -1.5,-1.75 C-1.5,35.09 -31.41,65 -68.25,65 C-105.09,65 -135,35.09 -135,-1.75 C-135,-38.59 -105.09,-68.5 -68.25,-68.5z "/></g></g><g id="time_group"/></svg>